<?xml version="1.0" encoding="UTF-8"?>
<svg id="Layer_1" data-name="Layer 1" xmlns="http://www.w3.org/2000/svg" xmlns:xlink="http://www.w3.org/1999/xlink" viewBox="0 0 377.4 60.72">
  <defs>
    <style>
      .cls-1 {
        fill: url(#linear-gradient);
      }
    </style>
    <linearGradient id="linear-gradient" x1="25.62" y1="0" x2="25.62" y2="60.6" gradientUnits="userSpaceOnUse">
      <stop offset=".13" stop-color="#ff5eff"/>
      <stop offset=".9" stop-color="#6f4fff"/>
    </linearGradient>
  </defs>
  <path class="cls-1" d="m10.08,32.28c.24,14.28,9.36,20.16,19.92,20.16,7.56,0,12.12-1.32,16.08-3l1.8,7.56c-3.72,1.68-10.08,3.6-19.32,3.6C10.68,60.6,0,48.84,0,31.32S10.32,0,27.24,0c18.96,0,24,16.68,24,27.36,0,2.16-.24,3.84-.36,4.92H10.08Zm30.96-7.56c.12-6.72-2.76-17.16-14.64-17.16-10.68,0-15.36,9.84-16.2,17.16h30.84Z"/>
  <path d="m64.32,17.04c0-6-.12-10.92-.48-15.72h9.24l.48,9.36h.36c3.24-5.52,8.64-10.68,18.24-10.68,7.92,0,13.92,4.8,16.44,11.64h.24c1.8-3.24,4.08-5.76,6.48-7.56,3.48-2.64,7.32-4.08,12.84-4.08,7.68,0,19.08,5.04,19.08,25.2v34.2h-10.32V26.52c0-11.16-4.08-17.88-12.6-17.88-6,0-10.68,4.44-12.48,9.6-.48,1.44-.84,3.36-.84,5.28v35.88h-10.32V24.6c0-9.24-4.08-15.96-12.12-15.96-6.6,0-11.4,5.28-13.08,10.56-.6,1.56-.84,3.36-.84,5.16v35.04h-10.32V17.04Z"/>
  <path d="m216.96,29.88c0,21.48-14.88,30.84-28.92,30.84-15.72,0-27.84-11.52-27.84-29.88,0-19.44,12.72-30.84,28.8-30.84s27.96,12.12,27.96,29.88Zm-46.08.6c0,12.72,7.32,22.32,17.64,22.32s17.64-9.48,17.64-22.56c0-9.84-4.92-22.32-17.4-22.32s-17.88,11.52-17.88,22.56Z"/>
  <path d="m230.28,17.04c0-6-.12-10.92-.48-15.72h9.24l.48,9.36h.36c3.24-5.52,8.64-10.68,18.24-10.68,7.92,0,13.92,4.8,16.44,11.64h.24c1.8-3.24,4.08-5.76,6.48-7.56,3.48-2.64,7.32-4.08,12.84-4.08,7.68,0,19.08,5.04,19.08,25.2v34.2h-10.32V26.52c0-11.16-4.08-17.88-12.6-17.88-6,0-10.68,4.44-12.48,9.6-.48,1.44-.84,3.36-.84,5.28v35.88h-10.32V24.6c0-9.24-4.08-15.96-12.12-15.96-6.6,0-11.4,5.28-13.08,10.56-.6,1.56-.84,3.36-.84,5.16v35.04h-10.32V17.04Z"/>
  <path d="m336.24,32.28c.24,14.28,9.36,20.16,19.92,20.16,7.56,0,12.12-1.32,16.08-3l1.8,7.56c-3.72,1.68-10.08,3.6-19.32,3.6-17.88,0-28.56-11.76-28.56-29.28S336.48,0,353.4,0c18.96,0,24,16.68,24,27.36,0,2.16-.24,3.84-.36,4.92h-40.8Zm30.96-7.56c.12-6.72-2.76-17.16-14.64-17.16-10.68,0-15.36,9.84-16.2,17.16h30.84Z"/>
</svg>